<svg id="Layer_1" data-name="Layer 1" xmlns="http://www.w3.org/2000/svg" viewBox="0 0 220.03 40.64"><defs><style>.cls-1{fill:#ea573f;}.cls-2{fill:#ebeced;}</style></defs><title>rc-logo-white</title><path class="cls-1" d="M43.83,21.11a1.52,1.52,0,0,0-1.12.53,2.74,2.74,0,0,0-.29,1.42c0,3,0,6,0,9,0,.86.26,2.06-1.1,2-1.19,0-1-1.12-1-2-.09-3.11-.2-6.21-.29-9.32C40,22,40,21,38.9,21.16c-.41.06-1,.38-1,1.68,0,3.16-.12,6.31-.28,9.47,0,.53-.59,1.42-1,1.47-1,.12-1.12-.73-1.12-1.55,0-2.61,0-5.22-.06-7.82a7.87,7.87,0,0,0-.09-2.24c-.14-.45-.71-1.09-1.24-1.09s-.62.67-.64,1c-.24,4.55-.5,9.11-.6,13.66a6.12,6.12,0,0,0,3.22,5.59A2.1,2.1,0,0,1,37,42.83c.1,1.73,0,3.46,0,5.24h4.06c0-1.75.1-3.36,0-4.94a1.61,1.61,0,0,1,1-1.89,5.19,5.19,0,0,0,3.07-4.67C45,31.7,44.65,26.84,44.39,22,44.37,21.67,44.27,21.08,43.83,21.11Z" transform="translate(-10.93 -7.68)"/><path class="cls-1" d="M63.89,26.78a13.07,13.07,0,0,0-3.68-3q0-.09,0-.18a16,16,0,0,0-26.13-12.3q-.69-.07-1.38-.07a14.07,14.07,0,0,0-13.91,12,13,13,0,0,0,5.18,25h8.36V43.91H24a8.62,8.62,0,0,1-.81-17.21A9.64,9.64,0,0,1,35.51,16.1,11.55,11.55,0,0,1,55.37,26.77,8.63,8.63,0,0,1,54,43.91H45.66v4.41H54a13,13,0,0,0,9.88-21.54Z" transform="translate(-10.93 -7.68)"/><path class="cls-2" d="M141.68,26.67c-1.31-2.92-3.91-3.73-6.69-2.15a17.12,17.12,0,0,0-1.84,1.29c0-.48,0-.22,0-.7,0-.74-.33-1.13-1.09-1.13s-1.71,0-2.56,0a.9.9,0,0,0-1,1c0,.77,0,.79,0,1.56l0,4.41c-.07,1.68,0,3.36,0,5q0,4.21,0,8.43c0,1,.27,1.3,1.33,1.3h2c1,0,1.32-.3,1.32-1.32,0-1.54,0-3.07,0-4.6,1,0,1.95.05,2.85,0,2.54-.18,4.61-1.22,5.66-3.64A11.33,11.33,0,0,0,141.68,26.67Zm-3.85,6.87c-.27,2.22-1.41,3.06-3.63,2.74-.77-.11-1.11-.38-1.07-1.24.07-1.55.06-3.11,0-4.67,0-.19,0-.38,0-.57a1.83,1.83,0,0,1,.77-1.56c2.12-1.72,3.44-1.24,3.88,1.44.12.7.13,1.42.18,2C137.93,32.39,137.9,33,137.83,33.54Z" transform="translate(-10.93 -7.68)"/><path class="cls-2" d="M230.79,37.76a14.43,14.43,0,0,1-.7-4.79c0-4.46,0-8.92,0-13.38,0-2.19,0-2.17-2.17-2.2-2.56,0-2.49-.08-2.46,2.48,0,1.31,0,2.62,0,3.82-.89,0-1.66,0-2.42,0-2.75.18-5.13,1.11-6.24,3.83a11.17,11.17,0,0,0,.37,9.66c1.31,2.54,3.57,3.23,6.12,1.92a29.92,29.92,0,0,0,2.62-1.7c.06.25.12.48.18.71s.15.53.23.79c.29.88.64,1.08,1.54.9l1.94-.41C231,39.18,231.16,38.88,230.79,37.76Zm-6.1-2.53c-2.47,1.71-3.39,1.33-3.8-1.44a14.92,14.92,0,0,1,0-4.41,2.93,2.93,0,0,1,4.24-2,.89.89,0,0,1,.29.67c0,1,0,2,0,3s0,1.76,0,2.64A1.63,1.63,0,0,1,224.69,35.24Z" transform="translate(-10.93 -7.68)"/><path class="cls-2" d="M172.62,35.26c-1.37.26-2.74.55-4.12.68a3.94,3.94,0,0,1-4.2-3,34.72,34.72,0,0,1-.39-3.63,2.45,2.45,0,0,1,0-.63,29.13,29.13,0,0,1,.56-3.67,3,3,0,0,1,2.86-2.36,34.52,34.52,0,0,1,4.93.44,1,1,0,0,0,1.12-.94c0-.48,0-1,0-1.43.21-2-2.27-1.71-5.29-2a9.36,9.36,0,0,0-2.59.11,7.39,7.39,0,0,0-6,5.34,17.5,17.5,0,0,0,0,10.41,6.74,6.74,0,0,0,4.28,4.61A13.9,13.9,0,0,0,172.9,39c.34-.11.66-.69.75-1.11a8,8,0,0,0,0-1.81A.87.87,0,0,0,172.62,35.26Z" transform="translate(-10.93 -7.68)"/><path class="cls-2" d="M199,30.63c-.26-3.44-2.22-5.88-5.39-6.55a11.91,11.91,0,0,0-3-.21,6.67,6.67,0,0,0-6.69,5.71,13,13,0,0,0-.21,3.12,9.61,9.61,0,0,0,.4,2.29,9.26,9.26,0,0,1-2.79,1.29c-.89.17-1.23-.26-1.26-1.49,0-.27,0-.55,0-.83q0-7.55,0-15.1c0-1-.27-1.3-1.32-1.31h-2.06c-1,0-1.25.27-1.25,1.28q0,4.17,0,8.34h0c0,2.83,0,5.67,0,8.5,0,2.57,1,3.87,3,4.14a9.23,9.23,0,0,0,2.47,0,8.61,8.61,0,0,0,1.12-.21h0l.42-.1A12.26,12.26,0,0,0,185.93,38a7.09,7.09,0,0,0,3.85,1.79,12.57,12.57,0,0,0,2.39.07,6.69,6.69,0,0,0,6.64-5.47,14.61,14.61,0,0,0,.34-2.53C199.14,31.36,199.06,31,199,30.63ZM193.77,35a2.35,2.35,0,0,1-2.51,1.37A2.3,2.3,0,0,1,189,35a8.1,8.1,0,0,1,0-6.19,2.43,2.43,0,0,1,2.53-1.49,2.33,2.33,0,0,1,2.4,1.55,10.79,10.79,0,0,1,.66,3.07A9.74,9.74,0,0,1,193.77,35Z" transform="translate(-10.93 -7.68)"/><path class="cls-2" d="M214.18,34c-.11-2.91,0-5.83,0-8.75,0-.85-.35-1.18-1.2-1.19h-2.06c-1.1,0-1.36.26-1.36,1.35,0,2.78,0,5.56,0,8.34a1.4,1.4,0,0,1-.28,1A11.41,11.41,0,0,1,207,36.14c-.76.35-1.36,0-1.53-.86a8.76,8.76,0,0,1-.15-1.72c0-2.81,0-5.61,0-8.42,0-.74-.33-1.13-1.09-1.12s-1.71,0-2.56,0a.9.9,0,0,0-1,1c0,.77,0,1.54,0,2.31,0,3,0,5.95.17,8.91.18,2.7,1.67,3.78,4.34,3.47a3.77,3.77,0,0,0,1.19-.3c1.2-.58,2.38-1.21,3.62-1.85.12.41.25.91.41,1.4.28.86.64,1.07,1.55.9.73-.14,1.45-.3,2.18-.46s1-.58.8-1.38A24.15,24.15,0,0,1,214.18,34Z" transform="translate(-10.93 -7.68)"/><path class="cls-2" d="M155.43,25.26c-3.32-2.84-9.12-1.35-10.55,2.76a12.58,12.58,0,0,0-.31,7.32,5.71,5.71,0,0,0,5.66,4.55,22.62,22.62,0,0,0,4.18-.32c2.43-.4,2.43-.48,2.37-2.9,0-.77-.34-1-1.1-.87-1,.2-2,.42-3,.57-2.46.38-3.49-.4-3.8-2.87a12.5,12.5,0,0,1,0-1.47h7c1.12,0,1.26-.13,1.36-1.27a11.26,11.26,0,0,0,.06-1.57A5.31,5.31,0,0,0,155.43,25.26Zm-6.49,4.12c.21-1.7,1.09-2.5,2.54-2.38,1.19.1,1.82.94,1.74,2.38Z" transform="translate(-10.93 -7.68)"/><path class="cls-2" d="M83.19,23.08c1.31,0,2.59-.06,3.86,0,.82.05,1.2.69,1.29,1.48.11,1,.08,1.94-.89,2.45a5.8,5.8,0,0,1-2,.54,19.5,19.5,0,0,1-2.31,0ZM94,35.74c-2.1,1.12-2.82.58-3.13.43-1.42-.7-3.11-3.87-3.52-5.36l1-.23.61-.17c2.89-.88,4.44-3,4.23-5.82-.23-3-1.75-4.74-5-5-3-.26-5.8-.16-8.8-.17-.62,0-.87.44-.87,1.06q0,9.17,0,18.35a1,1,0,0,0,1.12,1.09h2.12c1.19,0,1.41-.22,1.41-1.37q0-2.93,0-5.87V31.37c.08,0,0,0,.12,0,.47,2,1.76,6.08,5.2,7.8a6,6,0,0,0,2.55.72,9.23,9.23,0,0,0,4.88-1.26" transform="translate(-10.93 -7.68)"/><path class="cls-2" d="M118.35,35.92a30,30,0,0,1-3.41.5,1.82,1.82,0,0,1-2-1.38,17,17,0,0,1-.5-3.15c0-.25,0-.5,0-.74.16-3.08,1.52-4.27,4.36-3.67.13,0,.27,0,.41,0,2.14.38,2.11.38,2.13-1.79a1.3,1.3,0,0,0-1.08-1.42,10.63,10.63,0,0,0-4.73-.31,6.13,6.13,0,0,0-5.33,4.74,12.28,12.28,0,0,0,0,6.53,5.76,5.76,0,0,0,5.28,4.6,16.35,16.35,0,0,0,3.77-.25c2.32-.41,2.31-.46,2.24-2.84C119.48,36,119.12,35.77,118.35,35.92Z" transform="translate(-10.93 -7.68)"/><path class="cls-2" d="M125,23.93h-2.31A.94.94,0,0,0,121.61,25c0,4.43,0,9.47,0,13.89a.91.91,0,0,0,1,1h2.31c1,0,1.29-.27,1.29-1.33q0-3.18,0-6.35c0-2.14,0-4.9,0-7C126.23,24.26,125.9,23.94,125,23.93Z" transform="translate(-10.93 -7.68)"/><path class="cls-2" d="M104.73,25.26c-3.32-2.84-9.12-1.35-10.55,2.76a12.58,12.58,0,0,0-.31,7.32,5.71,5.71,0,0,0,5.66,4.55,22.62,22.62,0,0,0,4.18-.32c2.43-.4,2.43-.48,2.37-2.9,0-.77-.34-1-1.1-.87-1,.2-2,.42-3,.57-2.46.38-3.49-.4-3.8-2.87a12.5,12.5,0,0,1,0-1.47h7c1.12,0,1.26-.13,1.36-1.27a11.26,11.26,0,0,0,.06-1.57A5.31,5.31,0,0,0,104.73,25.26Zm-6.49,4.12c.21-1.7,1.09-2.5,2.54-2.38,1.19.1,1.82.94,1.74,2.38Z" transform="translate(-10.93 -7.68)"/><circle class="cls-2" cx="112.99" cy="11.05" r="2.53"/></svg>